<svg viewBox="0 0 1075.75 257.83" width="160" class="_logo_19u0q_1" aria-label="Althus" role="img" fill="currentColor" xmlns="http://www.w3.org/2000/svg"><path d="M1048.09,185.5c-9.26-39-60.03-35.95-90.7-43.2-14.46-3.42-31.83-13.47-18.78-30.16,13.53-17.32,72.79-16.11,76.43,12.51l1.15.84,30.36-1.87c-5.07-49.5-64.09-58.96-103.71-47.2-29.32,8.7-49.13,37.79-35.41,67.87,15.58,34.16,70.72,24.65,99.14,37.77,11.07,5.11,15.3,17.9,7.99,27.96-13.1,18.04-66.22,16.08-79.39-1.56-2.87-3.84-3.55-8.94-6.18-12.85-8.67,2.26-20.4.84-28.72,3.08-.64.17-1.29.64-1.41,1.3,7.43,49.81,68.76,57.27,108.92,47.19,28.84-7.24,47.53-31.32,40.32-61.68Z"></path><rect x="262.96" y="6.76" width="30.98" height="239.71"></rect><path d="M396.81,37.73h-29v57.97h-35.89v29h35.89v72.54c0,27.9,22.7,50.59,50.59,50.59h28.69v-29h-28.69c-11.91,0-21.59-9.69-21.59-21.59v-72.54h52.05v-29h-52.05v-57.97Z"></path><path d="M575.94,73.32c-19.1,0-36.64,6.78-50.34,18.06V7.22h-29v239.25h29v-93.81c0-27.76,22.58-50.34,50.34-50.34s50.34,22.58,50.34,50.34v93.81h29v-93.81c0-43.75-35.59-79.34-79.34-79.34Z"></path><path d="M831.23,171.41c0,27.76-22.58,50.34-50.34,50.34s-50.34-22.58-50.34-50.34v-94.73h-29v94.73c0,43.75,35.59,79.34,79.34,79.34,19.1,0,36.63-6.78,50.34-18.06v13.79h29V76.68h-29v94.73Z"></path><polygon points="216.01 246.47 249.99 246.47 159.08 7.22 116.99 7.22 26.11 246.47 61.09 246.47 138.06 38.73 216.01 246.47"></polygon><circle cx="138.05" cy="161.46" r="24.94"></circle></svg>